<svg xmlns="http://www.w3.org/2000/svg" width="29" height="29" viewBox="0 0 29 29">
  <g id="Group_1810" data-name="Group 1810" transform="translate(-189 -382)">
    <path id="Icon_awesome-linkedin-in" data-name="Icon awesome-linkedin-in" d="M2.436,10.884H.18V3.618H2.436ZM1.307,2.627A1.313,1.313,0,1,1,2.613,1.307,1.318,1.318,0,0,1,1.307,2.627Zm9.574,8.257H8.629V7.347c0-.843-.017-1.924-1.173-1.924-1.173,0-1.353.916-1.353,1.863v3.6H3.849V3.618H6.013v.991h.032A2.371,2.371,0,0,1,8.18,3.435c2.284,0,2.7,1.5,2.7,3.457v3.991Z" transform="translate(198.058 390.165)" fill="#fff"/>
    <g id="Ellipse_37" data-name="Ellipse 37" transform="translate(189 382)" fill="none" stroke="#fff" stroke-width="1">
      <circle cx="14.5" cy="14.5" r="14.5" stroke="none"/>
      <circle cx="14.5" cy="14.5" r="14" fill="none"/>
    </g>
  </g>
</svg>
