<svg xmlns="http://www.w3.org/2000/svg" width="29" height="29" viewBox="0 0 29 29">
  <g id="Group_1809" data-name="Group 1809" transform="translate(-125 -382)">
    <path id="Icon_awesome-twitter" data-name="Icon awesome-twitter" d="M12.405,6.179c.009.123.009.246.009.368A8.007,8.007,0,0,1,4.351,14.61,8.008,8.008,0,0,1,0,13.338a5.862,5.862,0,0,0,.684.035A5.675,5.675,0,0,0,4.2,12.163,2.839,2.839,0,0,1,1.553,10.2a3.573,3.573,0,0,0,.535.044,3,3,0,0,0,.746-.1A2.834,2.834,0,0,1,.561,7.364V7.329a2.854,2.854,0,0,0,1.281.36A2.838,2.838,0,0,1,.965,3.9,8.055,8.055,0,0,0,6.808,6.864a3.2,3.2,0,0,1-.07-.649,2.836,2.836,0,0,1,4.9-1.939,5.579,5.579,0,0,0,1.8-.684,2.826,2.826,0,0,1-1.246,1.562,5.681,5.681,0,0,0,1.632-.439,6.091,6.091,0,0,1-1.421,1.465Z" transform="translate(132.587 387.505)" fill="#fff"/>
    <g id="Ellipse_36" data-name="Ellipse 36" transform="translate(125 382)" fill="none" stroke="#fff" stroke-width="1">
      <circle cx="14.5" cy="14.5" r="14.5" stroke="none"/>
      <circle cx="14.5" cy="14.5" r="14" fill="none"/>
    </g>
  </g>
</svg>
